<mxfile host="app.diagrams.net" modified="2022-05-07T07:21:18.751Z" agent="5.0 (Windows NT 10.0; Win64; x64) AppleWebKit/537.36 (KHTML, like Gecko) Chrome/100.0.4896.127 Safari/537.36" etag="7ob_kQsxMrV8oHSBXQ5j" version="18.0.1" type="github">
  <diagram id="6a731a19-8d31-9384-78a2-239565b7b9f0" name="Page-1">
    <mxGraphModel dx="2031" dy="1089" grid="1" gridSize="10" guides="1" tooltips="1" connect="1" arrows="1" fold="1" page="1" pageScale="1" pageWidth="1169" pageHeight="827" background="none" math="0" shadow="0">
      <root>
        <mxCell id="0" />
        <mxCell id="1" parent="0" />
        <mxCell id="AYdysZRqWsrp2eTo5_sC-57" style="edgeStyle=orthogonalEdgeStyle;rounded=0;orthogonalLoop=1;jettySize=auto;html=1;exitX=0.5;exitY=1;exitDx=0;exitDy=0;exitPerimeter=0;" edge="1" parent="1" source="AYdysZRqWsrp2eTo5_sC-55" target="AYdysZRqWsrp2eTo5_sC-56">
          <mxGeometry relative="1" as="geometry" />
        </mxCell>
        <mxCell id="AYdysZRqWsrp2eTo5_sC-55" value="开始" style="strokeWidth=2;html=1;shape=mxgraph.flowchart.start_1;whiteSpace=wrap;" vertex="1" parent="1">
          <mxGeometry x="520" y="220" width="100" height="60" as="geometry" />
        </mxCell>
        <mxCell id="AYdysZRqWsrp2eTo5_sC-60" style="edgeStyle=orthogonalEdgeStyle;rounded=0;orthogonalLoop=1;jettySize=auto;html=1;exitX=0.5;exitY=1;exitDx=0;exitDy=0;exitPerimeter=0;" edge="1" parent="1" source="AYdysZRqWsrp2eTo5_sC-56" target="AYdysZRqWsrp2eTo5_sC-59">
          <mxGeometry relative="1" as="geometry">
            <Array as="points">
              <mxPoint x="570" y="400" />
            </Array>
          </mxGeometry>
        </mxCell>
        <mxCell id="AYdysZRqWsrp2eTo5_sC-56" value="创建合同" style="strokeWidth=2;html=1;shape=mxgraph.flowchart.start_1;whiteSpace=wrap;" vertex="1" parent="1">
          <mxGeometry x="520" y="300" width="100" height="60" as="geometry" />
        </mxCell>
        <mxCell id="AYdysZRqWsrp2eTo5_sC-70" style="edgeStyle=orthogonalEdgeStyle;rounded=0;orthogonalLoop=1;jettySize=auto;html=1;" edge="1" parent="1" source="AYdysZRqWsrp2eTo5_sC-59" target="AYdysZRqWsrp2eTo5_sC-61">
          <mxGeometry relative="1" as="geometry">
            <mxPoint x="430" y="600" as="targetPoint" />
            <Array as="points">
              <mxPoint x="390" y="440" />
              <mxPoint x="390" y="840" />
            </Array>
          </mxGeometry>
        </mxCell>
        <mxCell id="AYdysZRqWsrp2eTo5_sC-88" value="全部通过" style="edgeLabel;html=1;align=center;verticalAlign=middle;resizable=0;points=[];" vertex="1" connectable="0" parent="AYdysZRqWsrp2eTo5_sC-70">
          <mxGeometry x="-0.8635" y="1" relative="1" as="geometry">
            <mxPoint x="-17" y="-1" as="offset" />
          </mxGeometry>
        </mxCell>
        <mxCell id="AYdysZRqWsrp2eTo5_sC-79" value="" style="edgeStyle=orthogonalEdgeStyle;rounded=0;orthogonalLoop=1;jettySize=auto;html=1;" edge="1" parent="1" source="AYdysZRqWsrp2eTo5_sC-59" target="AYdysZRqWsrp2eTo5_sC-78">
          <mxGeometry relative="1" as="geometry" />
        </mxCell>
        <mxCell id="AYdysZRqWsrp2eTo5_sC-59" value="合同在线评审" style="strokeWidth=2;html=1;shape=mxgraph.flowchart.decision;whiteSpace=wrap;" vertex="1" parent="1">
          <mxGeometry x="520" y="390" width="100" height="100" as="geometry" />
        </mxCell>
        <mxCell id="AYdysZRqWsrp2eTo5_sC-93" value="" style="edgeStyle=orthogonalEdgeStyle;rounded=0;orthogonalLoop=1;jettySize=auto;html=1;" edge="1" parent="1" source="AYdysZRqWsrp2eTo5_sC-61" target="AYdysZRqWsrp2eTo5_sC-92">
          <mxGeometry relative="1" as="geometry" />
        </mxCell>
        <mxCell id="AYdysZRqWsrp2eTo5_sC-61" value="合同审批" style="strokeWidth=2;html=1;shape=mxgraph.flowchart.decision;whiteSpace=wrap;" vertex="1" parent="1">
          <mxGeometry x="520" y="790" width="100" height="100" as="geometry" />
        </mxCell>
        <mxCell id="AYdysZRqWsrp2eTo5_sC-82" value="" style="edgeStyle=orthogonalEdgeStyle;rounded=0;orthogonalLoop=1;jettySize=auto;html=1;" edge="1" parent="1" source="AYdysZRqWsrp2eTo5_sC-78" target="AYdysZRqWsrp2eTo5_sC-81">
          <mxGeometry relative="1" as="geometry">
            <Array as="points">
              <mxPoint x="630" y="560" />
              <mxPoint x="630" y="560" />
            </Array>
          </mxGeometry>
        </mxCell>
        <mxCell id="AYdysZRqWsrp2eTo5_sC-83" value="是" style="edgeLabel;html=1;align=center;verticalAlign=middle;resizable=0;points=[];" vertex="1" connectable="0" parent="AYdysZRqWsrp2eTo5_sC-82">
          <mxGeometry x="-0.2375" y="3" relative="1" as="geometry">
            <mxPoint x="17" y="3" as="offset" />
          </mxGeometry>
        </mxCell>
        <mxCell id="AYdysZRqWsrp2eTo5_sC-85" value="" style="edgeStyle=orthogonalEdgeStyle;rounded=0;orthogonalLoop=1;jettySize=auto;html=1;exitX=0.5;exitY=1;exitDx=0;exitDy=0;exitPerimeter=0;" edge="1" parent="1" source="AYdysZRqWsrp2eTo5_sC-78" target="AYdysZRqWsrp2eTo5_sC-84">
          <mxGeometry relative="1" as="geometry">
            <Array as="points">
              <mxPoint x="570" y="670" />
              <mxPoint x="570" y="670" />
            </Array>
          </mxGeometry>
        </mxCell>
        <mxCell id="AYdysZRqWsrp2eTo5_sC-91" value="否" style="edgeLabel;html=1;align=center;verticalAlign=middle;resizable=0;points=[];" vertex="1" connectable="0" parent="AYdysZRqWsrp2eTo5_sC-85">
          <mxGeometry x="0.4354" relative="1" as="geometry">
            <mxPoint y="-14" as="offset" />
          </mxGeometry>
        </mxCell>
        <mxCell id="AYdysZRqWsrp2eTo5_sC-106" style="edgeStyle=orthogonalEdgeStyle;rounded=0;orthogonalLoop=1;jettySize=auto;html=1;exitX=1;exitY=0.5;exitDx=0;exitDy=0;" edge="1" parent="1" source="AYdysZRqWsrp2eTo5_sC-78">
          <mxGeometry relative="1" as="geometry">
            <mxPoint x="630" y="560" as="targetPoint" />
          </mxGeometry>
        </mxCell>
        <mxCell id="AYdysZRqWsrp2eTo5_sC-107" style="edgeStyle=orthogonalEdgeStyle;rounded=0;orthogonalLoop=1;jettySize=auto;html=1;exitX=0;exitY=0.5;exitDx=0;exitDy=0;" edge="1" parent="1" source="AYdysZRqWsrp2eTo5_sC-78">
          <mxGeometry relative="1" as="geometry">
            <mxPoint x="520" y="560" as="targetPoint" />
          </mxGeometry>
        </mxCell>
        <mxCell id="AYdysZRqWsrp2eTo5_sC-78" value="是否删除合同" style="rhombus;whiteSpace=wrap;html=1;strokeWidth=2;" vertex="1" parent="1">
          <mxGeometry x="530" y="520" width="80" height="80" as="geometry" />
        </mxCell>
        <mxCell id="AYdysZRqWsrp2eTo5_sC-81" value="结束" style="ellipse;whiteSpace=wrap;html=1;strokeWidth=2;" vertex="1" parent="1">
          <mxGeometry x="750" y="530" width="120" height="60" as="geometry" />
        </mxCell>
        <mxCell id="AYdysZRqWsrp2eTo5_sC-86" style="edgeStyle=orthogonalEdgeStyle;rounded=0;orthogonalLoop=1;jettySize=auto;html=1;exitX=1;exitY=0.5;exitDx=0;exitDy=0;entryX=1;entryY=0.5;entryDx=0;entryDy=0;entryPerimeter=0;" edge="1" parent="1" source="AYdysZRqWsrp2eTo5_sC-84" target="AYdysZRqWsrp2eTo5_sC-59">
          <mxGeometry relative="1" as="geometry">
            <Array as="points">
              <mxPoint x="940" y="680" />
              <mxPoint x="940" y="440" />
            </Array>
          </mxGeometry>
        </mxCell>
        <mxCell id="AYdysZRqWsrp2eTo5_sC-87" value="重新进入评审" style="edgeLabel;html=1;align=center;verticalAlign=middle;resizable=0;points=[];" vertex="1" connectable="0" parent="AYdysZRqWsrp2eTo5_sC-86">
          <mxGeometry x="-0.7167" y="1" relative="1" as="geometry">
            <mxPoint as="offset" />
          </mxGeometry>
        </mxCell>
        <mxCell id="AYdysZRqWsrp2eTo5_sC-84" value="合同修改" style="ellipse;whiteSpace=wrap;html=1;strokeWidth=2;" vertex="1" parent="1">
          <mxGeometry x="510" y="650" width="120" height="60" as="geometry" />
        </mxCell>
        <mxCell id="AYdysZRqWsrp2eTo5_sC-89" value="一方否决" style="text;html=1;align=center;verticalAlign=middle;resizable=0;points=[];autosize=1;strokeColor=none;fillColor=none;" vertex="1" parent="1">
          <mxGeometry x="580" y="490" width="60" height="20" as="geometry" />
        </mxCell>
        <mxCell id="AYdysZRqWsrp2eTo5_sC-92" value="生成合同" style="ellipse;whiteSpace=wrap;html=1;strokeWidth=2;" vertex="1" parent="1">
          <mxGeometry x="510" y="930" width="120" height="60" as="geometry" />
        </mxCell>
        <mxCell id="AYdysZRqWsrp2eTo5_sC-100" value="" style="endArrow=none;html=1;rounded=0;" edge="1" parent="1">
          <mxGeometry width="50" height="50" relative="1" as="geometry">
            <mxPoint x="570" y="790" as="sourcePoint" />
            <mxPoint x="570" y="750" as="targetPoint" />
            <Array as="points">
              <mxPoint x="570" y="780" />
              <mxPoint x="570" y="770" />
            </Array>
          </mxGeometry>
        </mxCell>
        <mxCell id="AYdysZRqWsrp2eTo5_sC-101" value="" style="endArrow=none;html=1;rounded=0;" edge="1" parent="1">
          <mxGeometry width="50" height="50" relative="1" as="geometry">
            <mxPoint x="450" y="750" as="sourcePoint" />
            <mxPoint x="570" y="750" as="targetPoint" />
            <Array as="points" />
          </mxGeometry>
        </mxCell>
        <mxCell id="AYdysZRqWsrp2eTo5_sC-108" value="驳回" style="edgeLabel;html=1;align=center;verticalAlign=middle;resizable=0;points=[];" vertex="1" connectable="0" parent="AYdysZRqWsrp2eTo5_sC-101">
          <mxGeometry x="-0.2333" y="1" relative="1" as="geometry">
            <mxPoint as="offset" />
          </mxGeometry>
        </mxCell>
        <mxCell id="AYdysZRqWsrp2eTo5_sC-103" value="" style="endArrow=none;html=1;rounded=0;" edge="1" parent="1">
          <mxGeometry width="50" height="50" relative="1" as="geometry">
            <mxPoint x="450" y="750" as="sourcePoint" />
            <mxPoint x="450" y="500" as="targetPoint" />
          </mxGeometry>
        </mxCell>
        <mxCell id="AYdysZRqWsrp2eTo5_sC-104" value="" style="endArrow=classic;html=1;rounded=0;" edge="1" parent="1">
          <mxGeometry width="50" height="50" relative="1" as="geometry">
            <mxPoint x="450" y="500" as="sourcePoint" />
            <mxPoint x="570" y="500" as="targetPoint" />
          </mxGeometry>
        </mxCell>
      </root>
    </mxGraphModel>
  </diagram>
</mxfile>
